<?xml version="1.0" encoding="UTF-8" standalone="no"?>
<!-- Created with Inkscape (http://www.inkscape.org/) -->

<svg
   width="300"
   height="300"
   viewBox="0 0 79.374998 79.375"
   version="1.1"
   id="svg261"
   xml:space="preserve"
   inkscape:version="1.2.2 (b0a8486541, 2022-12-01)"
   sodipodi:docname="spwwd_icon.svg"
   xmlns:inkscape="http://www.inkscape.org/namespaces/inkscape"
   xmlns:sodipodi="http://sodipodi.sourceforge.net/DTD/sodipodi-0.dtd"
   xmlns="http://www.w3.org/2000/svg"
   xmlns:svg="http://www.w3.org/2000/svg"><sodipodi:namedview
     id="namedview263"
     pagecolor="#ffffff"
     bordercolor="#000000"
     borderopacity="0.25"
     inkscape:showpageshadow="2"
     inkscape:pageopacity="0.0"
     inkscape:pagecheckerboard="0"
     inkscape:deskcolor="#d1d1d1"
     inkscape:document-units="mm"
     showgrid="false"
     inkscape:zoom="1.9704153"
     inkscape:cx="163.16357"
     inkscape:cy="165.95486"
     inkscape:window-width="1920"
     inkscape:window-height="1011"
     inkscape:window-x="0"
     inkscape:window-y="0"
     inkscape:window-maximized="1"
     inkscape:current-layer="layer1" /><defs
     id="defs258" /><g
     inkscape:label="Layer 1"
     inkscape:groupmode="layer"
     id="layer1"><rect
       style="fill:none;fill-rule:evenodd;stroke:#080060;stroke-width:6.34795;stroke-linejoin:bevel;stroke-dasharray:none"
       id="rect2614"
       width="0.11651038"
       height="45.517147"
       x="39.567898"
       y="45.320347" /><path
       style="fill:none;fill-rule:evenodd;stroke:#080060;stroke-width:5.581;stroke-linejoin:bevel;stroke-dasharray:none"
       id="path2616"
       sodipodi:type="arc"
       sodipodi:cx="15.34535"
       sodipodi:cy="-54.092163"
       sodipodi:rx="15.967798"
       sodipodi:ry="15.967798"
       sodipodi:start="0"
       sodipodi:end="5.2359878"
       sodipodi:open="true"
       sodipodi:arc-type="arc"
       d="M 31.313148,-54.092163 A 15.967798,15.967798 0 0 1 19.47812,-38.668454 15.967798,15.967798 0 0 1 1.5168312,-46.108264 15.967798,15.967798 0 0 1 4.0544122,-65.383102 15.967798,15.967798 0 0 1 23.32925,-67.920682"
       transform="rotate(119.55919)" /><path
       style="fill:none;fill-rule:evenodd;stroke:#080060;stroke-width:5.606;stroke-linejoin:bevel;stroke-dasharray:none"
       id="path2616-3"
       sodipodi:type="arc"
       sodipodi:cx="15.232459"
       sodipodi:cy="-54.209232"
       sodipodi:rx="24.336082"
       sodipodi:ry="24.336082"
       sodipodi:start="0"
       sodipodi:end="5.2359878"
       sodipodi:open="true"
       sodipodi:arc-type="arc"
       d="m 39.568542,-54.209232 a 24.336082,24.336082 0 0 1 -18.037442,23.50685 24.336082,24.336082 0 0 1 -27.3743068,-11.33881 24.336082,24.336082 0 0 1 3.8674575,-29.37625 24.336082,24.336082 0 0 1 29.3762503,-3.867455"
       transform="rotate(119.55919)" /><path
       style="fill:none;fill-rule:evenodd;stroke:#080060;stroke-width:7.90923;stroke-linejoin:bevel;stroke-dasharray:none"
       id="path2616-3-6"
       sodipodi:type="arc"
       sodipodi:cx="15.114408"
       sodipodi:cy="-54.250572"
       sodipodi:rx="34.334618"
       sodipodi:ry="34.334618"
       sodipodi:start="0"
       sodipodi:end="5.2359878"
       sodipodi:open="true"
       sodipodi:arc-type="arc"
       d="m 49.449025,-54.250572 a 34.334618,34.334618 0 0 1 -25.448165,33.164694 34.334618,34.334618 0 0 1 -38.621104,-15.997386 34.334618,34.334618 0 0 1 5.4564114,-41.44555 34.334618,34.334618 0 0 1 41.4455506,-5.456409"
       transform="rotate(119.55919)" /><circle
       style="fill:none;fill-rule:evenodd;stroke:#080060;stroke-width:8.63849;stroke-linejoin:bevel;stroke-dasharray:none"
       id="path2672"
       cx="39.576241"
       cy="39.831242"
       r="2.7399952" /></g></svg>
